# xmcd
# 
# Track frame offsets:
#     180
#     11952
#     25184
#     39765
#     52440
#     65752
#     76106
#     89582
#     102982
#     115618
#     138879
#     153888
#     168162
#     182520
#     192249
#     206464
#     220311
#     234334
#     248055
#     262241
#     273617
#     287916
#     301438
# 
# Disc length: 4217
# 
# Revision: 0
# Processed by: cddbd v1.5.2PL0 Copyright (c) Steve Scherf et al.
# Submitted via: BonkEnc v1.0.6
# 
DISCID=48107717
DTITLE=Muddy Waters - Black Blues Box
DYEAR=0
DGENRE=Blues
TTITLE0=You Gonna Miss Me
TTITLE1=Brother James
TTITLE2=Cold In Hand Blues
TTITLE3=Still In The Dark
TTITLE4=She Moves Me
TTITLE5=Feed Her All Night
TTITLE6=Devil Got My Woman
TTITLE7=Dying Gambler´s Blues 
TTITLE8=Warehouse Man Blues
TTITLE9=Roll And Rumble
TTITLE10=Soft Pedal Blues 
TTITLE11=Milk And Butter Blues
TTITLE12=Tb Woman Blues
TTITLE13=Onions
TTITLE14=Trinity River Blues
TTITLE15=Alabama Bound
TTITLE16=My Black Mama Part 1
TTITLE17=Call It Stormy Monday But Tuesday Is Just As Bad
TTITLE18=The Red Cross Store Blues
TTITLE19=Blue Monday
TTITLE20=Wichita Falls Blues
TTITLE21=Backwater Blues
TTITLE22=Ramblin´ By Myself
EXTD=
EXTT0=
EXTT1=
EXTT2=
EXTT3=
EXTT4=
EXTT5=
EXTT6=
EXTT7=
EXTT8=
EXTT9=
EXTT10=
EXTT11=
EXTT12=
EXTT13=
EXTT14=
EXTT15=
EXTT16=
EXTT17=
EXTT18=
EXTT19=
EXTT20=
EXTT21=
EXTT22=
PLAYORDER=
